<svg height="512" viewBox="0 0 64 64" width="512" xmlns="http://www.w3.org/2000/svg"><g id="Check_in" data-name="Check in"><path d="m55 62h-46l4-16h38z" fill="#5aaae7"/><path d="m49 19c0 9.389-16 35-16 35s-18-25.611-18-35a17 17 0 0 1 34 0z" fill="#d80027"/><circle cx="32" cy="16" fill="#3e3d42" r="6"/><path d="m55.97 61.757-4-16a1 1 0 0 0 -.97-.757h-11.559c4.671-8.376 10.559-20.1 10.559-26a18 18 0 0 0 -36 0c0 5.907 6.608 17.619 11.862 26h-12.862a1 1 0 0 0 -.97.757l-4 16a1 1 0 0 0 .97 1.243h46a1 1 0 0 0 .97-1.243zm-23.97-58.757a16.019 16.019 0 0 1 16 16c0 7.812-11.832 27.859-15.05 33.167-3.574-5.237-16.95-25.357-16.95-33.167a16.019 16.019 0 0 1 16-16zm-21.719 58 3.5-14h13.349c2.7 4.208 4.8 7.223 5.052 7.575a1 1 0 0 0 .818.425h.027a1 1 0 0 0 .821-.47c.219-.351 2.081-3.346 4.465-7.53h11.906l3.5 14z"/><path d="m39 16a7 7 0 1 0 -7 7 7.008 7.008 0 0 0 7-7zm-7 5a5 5 0 1 1 5-5 5.006 5.006 0 0 1 -5 5z"/><path d="m47 58h-11a1 1 0 0 0 0 2h11a1 1 0 0 0 0-2z"/><path d="m49 59a1 1 0 0 0 1 1h1a1 1 0 0 0 0-2h-1a1 1 0 0 0 -1 1z"/></g></svg>